<svg width="32" height="32" viewBox="0 0 32 32" fill="none" xmlns="http://www.w3.org/2000/svg">
  <rect width="32" height="32" rx="7" fill="#0F1923"/>
  <rect x="6" y="4" width="14" height="20" rx="2" fill="#F8FAFC"/>
  <line x1="9" y1="10" x2="17" y2="10" stroke="#1E2D3D" stroke-width="1.5" stroke-linecap="round"/>
  <line x1="9" y1="13.5" x2="17" y2="13.5" stroke="#1E2D3D" stroke-width="1.5" stroke-linecap="round"/>
  <line x1="9" y1="17" x2="13.5" y2="17" stroke="#1E2D3D" stroke-width="1.5" stroke-linecap="round"/>
  <path d="M18 4 L24 4 L24 16 L21 13.5 L18 16 Z" fill="#7C3AED"/>
  <path d="M21 7 L21.6 9 L23.5 9 L22 10.2 L22.5 12.2 L21 11 L19.5 12.2 L20 10.2 L18.5 9 L20.4 9 Z" fill="#F59E0B"/>
  <circle cx="24" cy="25" r="4" fill="#FB7185"/>
  <path d="M22.5 25 L23.5 26 L25.8 23.5" stroke="white" stroke-width="1.2" stroke-linecap="round" stroke-linejoin="round"/>
</svg>
